#!OML:ASF E:\Mandelcareful walks\Project 1\Capture day 1\Session 1\Subject1.ASF
:FULLY-SPECIFIED
:DEGREES
208
root 6.30029 15.4348 0.902581 -124.32 -86.8609 129.279
lowerback 23.4524 2.67825 1.50188
upperback 7.49789 2.991 -3.01012
thorax -4.55219 1.24988 -4.89598
lowerneck -32.0548 3.64644 1.54197
upperneck 28.2403 4.30902 0.127007
head 15.2499 1.9532 0.729561
rclavicle -4.28878e-014 1.40143e-014
rhumerus 38.6582 41.2541 -64.6215
rradius 119.251
rwrist -62.9483
rhand 0.7741 -21.7269
rfingers 7.12502
rthumb 26.3316 -49.919
lclavicle -4.28878e-014 1.40143e-014
lhumerus -10.8596 -21.5276 81.113
lradius 57.4407
lwrist 21.8716
lhand -25.4176 -14.0016
lfingers 7.12502
lthumb 1.10828 15.9753
rfemur -25.386 -12.6257 2.31267
rtibia 50.0758
rfoot -21.1809 -7.5164
rtoes -15.1803
lfemur -34.4284 11.9751 -12.3738
ltibia 59.3868
lfoot -22.994 0.452846
ltoes -6.40299
209
root 6.29104 15.4373 0.920204 -123.1 -86.8624 128.109
lowerback 23.4084 2.77187 1.28585
upperback 7.43964 3.07494 -2.93587
thorax -4.60405 1.28968 -4.71265
lowerneck -31.9993 3.46492 1.44914
upperneck 28.2565 4.05139 0.24529
head 15.2389 1.85402 0.737404
rclavicle -4.91247e-014 5.94118e-014
rhumerus 38.6899 41.2054 -64.1907
rradius 119.323
rwrist -62.9664
rhand 0.712922 -21.5674
rfingers 7.12502
rthumb 26.2731 -49.7683
lclavicle -4.91247e-014 5.94118e-014
lhumerus -10.9663 -21.4175 81.2655
lradius 57.4048
lwrist 21.9285
lhand -25.6828 -14.0418
lfingers 7.12502
lthumb 0.852152 15.9362
rfemur -25.3441 -12.6453 2.18149
rtibia 50.0738
rfoot -21.1986 -7.48599
rtoes -15.1117
lfemur -34.4517 11.9326 -12.4938
ltibia 59.4264
lfoot -23.1284 0.297226
ltoes -5.57444
210
root 6.29302 15.4313 0.931099 -120.766 -86.8599 125.82
lowerback 23.2798 2.74557 1.30742
upperback 7.51291 3.03198 -3.0874
thorax -4.45248 1.27278 -4.86915
lowerneck -32.0392 3.18187 1.24518
upperneck 28.106 3.56988 0.732428
head 15.1592 1.7103 0.869602
rclavicle -2.87492e-014 1.39646e-014
rhumerus 38.7555 40.9477 -64.0617
rradius 119.472
rwrist -62.9848
rhand 0.740806 -21.6998
rfingers 7.12502
rthumb 26.2997 -49.8967
lclavicle -2.87492e-014 1.39646e-014
lhumerus -10.7919 -21.3918 80.9858
lradius 57.3561
lwrist 22.1342
lhand -25.6467 -13.8278
lfingers 7.12502
lthumb 0.886965 16.1501
rfemur -25.3701 -12.6459 2.06878
rtibia 50.1288
rfoot -21.2688 -7.64192
rtoes -15.2423
lfemur -34.5582 11.9476 -12.6413
ltibia 59.4744
lfoot -23.1156 0.197217
ltoes -5.13784
211
root 6.30535 15.424 0.937148 -116.066 -86.8616 121.187
lowerback 23.3288 2.73196 1.02424
upperback 7.47526 2.95154 -3.10215
thorax -4.54138 1.23016 -4.70638
lowerneck -31.9852 2.61984 0.662803
upperneck 27.925 2.7457 1.59673
head 15.0396 1.43966 1.14599
rclavicle -9.93923e-016 1.31695e-014
rhumerus 38.6871 40.6191 -63.8231
rradius 119.62
rwrist -63.2202
rhand 0.899981 -21.9566
rfingers 7.12502
rthumb 26.4521 -50.1306
lclavicle -9.93923e-016 1.31695e-014
lhumerus -10.9448 -21.146 80.9818
lradius 57.3816
lwrist 22.1746
lhand -25.502 -13.9312
lfingers 7.12502
lthumb 1.02668 16.0461
rfemur -25.4137 -12.7226 1.91307
rtibia 50.167
rfoot -21.3114 -7.79905
rtoes -15.2176
lfemur -34.8048 11.9562 -12.8643
ltibia 59.5447
lfoot -23.0215 0.13466
ltoes -5.31569
212
root 6.30938 15.4236 0.947528 -114.989 -86.9479 120.091
lowerback 23.4332 2.73196 0.877407
upperback 7.41902 2.91992 -3.08962
thorax -4.66713 1.21128 -4.60827
lowerneck -31.7683 1.90666 0.0574527
upperneck 27.6345 1.67201 2.59589
head 14.859 1.08093 1.42485
rclavicle -2.03754e-015 -5.26779e-015
rhumerus 38.7465 40.8167 -63.0833
rradius 119.759
rwrist -61.6812
rhand -0.673585 -20.4185
rfingers 7.12502
rthumb 24.945 -48.8104
lclavicle -2.03754e-015 -5.26779e-015
lhumerus -11.2031 -20.8616 80.9871
lradius 57.5018
lwrist 22.271
lhand -25.3042 -13.6502
lfingers 7.12502
lthumb 1.21773 16.3261
rfemur -25.3566 -12.726 1.91631
rtibia 50.1569
rfoot -21.3242 -7.84557
rtoes -15.138
lfemur -34.8698 11.9225 -12.8563
ltibia 59.6179
lfoot -23.039 0.0615135
ltoes -5.15802
213
root 6.30443 15.4269 0.958082 -118.555 -87.0534 123.524
lowerback 23.5493 2.77922 0.884502
upperback 7.46328 2.97246 -3.1045
thorax -4.67093 1.23414 -4.64707
lowerneck -31.8224 0.999309 -0.786858
upperneck 27.4219 0.352509 3.84523
head 14.7989 0.628231 1.80264
rclavicle -1.97294e-014 6.36111e-015
rhumerus 38.5176 40.2978 -62.8331
rradius 120.008
rwrist -61.8233
rhand -0.79556 -20.4728
rfingers 7.12502
rthumb 24.8281 -48.8808
lclavicle -1.97294e-014 6.36111e-015
lhumerus -11.1844 -20.7513 80.8593
lradius 57.4688
lwrist 22.4852
lhand -25.2568 -13.2246
lfingers 7.12502
lthumb 1.26358 16.7514
rfemur -25.2038 -12.554 2.05852
rtibia 50.0835
rfoot -21.2613 -7.87662
rtoes -15.151
lfemur -34.6572 11.9853 -12.6586
ltibia 59.6795
lfoot -23.1633 0.0304987
ltoes -4.97193
214
root 6.30169 15.4292 0.965753 -121.906 -87.22 126.844
lowerback 23.5165 2.70374 0.698919
upperback 7.47011 2.84639 -2.93783
thorax -4.67817 1.17006 -4.32354
lowerneck -31.743 0.0359918 -1.86728
upperneck 27.1221 -0.917757 5.08809
head 14.7091 0.165271 2.22438
rclavicle 4.75095e-014 -2.48481e-015
rhumerus 38.3627 39.6917 -62.4113
rradius 120.428
rwrist -63.0325
rhand 0.326078 -21.5988
rfingers 7.12502
rthumb 25.9027 -49.8543
lclavicle 4.75095e-014 -2.48481e-015
lhumerus -11.3859 -20.0488 80.9564
lradius 57.4361
lwrist 22.532
lhand -25.2751 -12.9572
lfingers 7.12502
lthumb 1.24586 17.019
rfemur -25.141 -12.4717 2.29691
rtibia 49.9734
rfoot -21.1632 -7.92568
rtoes -15.279
lfemur -34.6102 12.0866 -12.4311
ltibia 59.7234
lfoot -23.1877 -0.0215279
ltoes -4.8738
215
root 6.30288 15.4283 0.973954 -123.15 -87.4675 128.13
lowerback 23.5504 2.63591 0.403051
upperback 7.39144 2.71922 -2.6625
thorax -4.82241 1.10425 -3.82519
lowerneck -31.4961 -1.36572 -3.48568
upperneck 26.5887 -2.62743 6.60121
head 14.5644 -0.506479 2.74864
rclavicle -1.31198e-014 -2.04748e-014
rhumerus 38.1442 39.0594 -61.6764
rradius 120.824
rwrist -63.7365
rhand 1.61727 -22.1048
rfingers 7.12502
rthumb 27.1385 -50.1736
lclavicle -1.31198e-014 -2.04748e-014
lhumerus -11.7789 -19.2841 81.2629
lradius 57.5556
lwrist 22.5576
lhand -25.0849 -12.7306
lfingers 7.12502
lthumb 1.42961 17.2443
rfemur -25.1166 -12.5618 2.54349
rtibia 49.8714
rfoot -21.0858 -7.97426
rtoes -15.4144
lfemur -34.7142 12.1458 -12.2236
ltibia 59.7593
lfoot -23.1355 -0.0478763
ltoes -4.78115
216
root 6.3016 15.4291 0.983334 -121.202 -87.4994 126.188
lowerback 23.5664 2.58475 -0.0645784
upperback 7.35256 2.56046 -2.51704
thorax -4.91449 1.02337 -3.35945
lowerneck -30.8896 -2.94804 -5.09725
upperneck 25.7807 -4.70707 8.42589
head 14.3472 -1.30574 3.31114
rclavicle -7.35503e-015 5.46658e-015
rhumerus 38.0462 38.3522 -60.7811
rradius 121.095
rwrist -64.013
rhand 2.24243 -21.933
rfingers 7.12502
rthumb 27.7364 -49.9071
lclavicle -7.35503e-015 5.46658e-015
lhumerus -12.0777 -18.6768 81.4164
lradius 57.6694
lwrist 22.8339
lhand -24.8198 -12.5409
lfingers 7.12502
lthumb 1.68563 17.4321
rfemur -25.0419 -12.7025 2.46872
rtibia 49.7972
rfoot -21.0071 -7.95797
rtoes -15.4023
lfemur -34.7348 12.1969 -12.3123
ltibia 59.7861
lfoot -23.1473 0.0249123
ltoes -5.30481
217
root 6.29696 15.4301 0.990859 -121.784 -87.4194 126.759
lowerback 23.3895 2.49108 -0.50078
upperback 7.44847 2.34109 -2.49898
thorax -4.75392 0.913976 -3.02122
lowerneck -30.3096 -4.58878 -6.52072
upperneck 24.8555 -6.92969 10.1817
head 14.188 -2.17252 3.77499
rclavicle -2.69353e-014 5.96354e-016
rhumerus 38.3884 37.8182 -59.3988
rradius 121.465
rwrist -63.0686
rhand 0.758469 -21.1501
rfingers 7.12502
rthumb 26.3167 -49.3445
lclavicle -2.69353e-014 5.96354e-016
lhumerus -12.2224 -18.021 81.3094
lradius 57.7354
lwrist 23.0041
lhand -24.8238 -12.4406
lfingers 7.12502
lthumb 1.68172 17.5325
rfemur -24.9822 -12.7092 2.37209
rtibia 49.7244
rfoot -20.9787 -7.86473
rtoes -15.2835
lfemur -34.7054 12.2883 -12.3793
ltibia 59.7902
lfoot -23.186 -0.10956
ltoes -5.28377
218
root 6.29585 15.4255 0.997185 -126.992 -87.3705 131.916
lowerback 23.3287 2.37046 -0.877242
upperback 7.49902 2.1048 -2.40554
thorax -4.69861 0.794277 -2.63828
lowerneck -29.5097 -6.28959 -8.07708
upperneck 23.7804 -9.16371 11.9005
head 14.0228 -3.0872 4.22902
rclavicle -2.0276e-014 -1.51076e-014
rhumerus 38.2996 36.6828 -58.776
rradius 121.791
rwrist -64.6264
rhand 1.59086 -22.3176
rfingers 7.12502
rthumb 27.1132 -50.3904
lclavicle -2.0276e-014 -1.51076e-014
lhumerus -12.6868 -17.0084 81.3433
lradius 57.9865
lwrist 22.8137
lhand -24.8964 -12.1736
lfingers 7.12502
lthumb 1.61163 17.8
rfemur -24.9683 -12.504 2.46434
rtibia 49.6373
rfoot -20.9637 -7.78958
rtoes -15.11
lfemur -34.6141 12.4578 -12.2347
ltibia 59.8144
lfoot -23.227 -0.293121
ltoes -4.54293
219
root 6.2955 15.4247 1.00698 -131.851 -87.2736 136.681
lowerback 23.4217 2.16987 -1.2488
upperback 7.64447 1.75315 -2.30266
thorax -4.61612 0.613245 -2.22088
lowerneck -28.6738 -7.75084 -9.63583
upperneck 22.4906 -11.0387 13.6371
head 13.8081 -3.86677 4.75066
rclavicle -1.76918e-014 4.17448e-015
rhumerus 38.6765 36.2229 -57.6665
rradius 122.046
rwrist -64.4974
rhand 1.45557 -22.0473
rfingers 7.12502
rthumb 26.9838 -50.1402
lclavicle -1.76918e-014 4.17448e-015
lhumerus -12.9808 -15.8087 81.2676
lradius 58.2726
lwrist 22.867
lhand -24.9062 -11.8731
lfingers 7.12502
lthumb 1.60215 18.1006
rfemur -24.9214 -12.3115 2.51027
rtibia 49.5211
rfoot -20.841 -7.71258
rtoes -15.0553
lfemur -34.4566 12.5797 -12.1464
ltibia 59.8568
lfoot -23.2974 -0.220431
ltoes -4.40946
220
root 6.29768 15.4285 1.01712 -139.897 -87.3454 144.692
lowerback 23.503 1.84361 -1.397
upperback 7.48373 1.31189 -2.19925
thorax -4.85143 0.399949 -1.91154
lowerneck -27.3976 -8.85045 -10.6474
upperneck 21.58 -12.6147 14.9508
head 13.6185 -4.55368 5.0806
rclavicle -1.90833e-014 -1.59028e-015
rhumerus 38.4838 36.2664 -57.1809
rradius 122.279
rwrist -64.2487
rhand 1.47538 -21.8522
rfingers 7.12502
rthumb 27.0028 -49.9421
lclavicle -1.90833e-014 -1.59028e-015
lhumerus -13.8861 -14.8633 81.0626
lradius 58.5182
lwrist 23.3742
lhand -25.0887 -11.6786
lfingers 7.12502
lthumb 1.42587 18.2964
rfemur -24.9305 -12.1747 2.87524
rtibia 49.3857
rfoot -20.7154 -7.68343
rtoes -15.1095
lfemur -34.413 12.6865 -11.7864
ltibia 59.9202
lfoot -23.3492 -0.127947
ltoes -4.5805
